# xmcd
#
# Track frame offsets:
#        150
#        15667
#        30442
#        50115
#        66175
#        86840
#        104285
#        117872
#        131215
#        147142
#        167302
#        182695
#        196320
#        219832
#        234230
#        249957
#        264555
#        281455
#        297170
#        313670
#
# Disc length: 4425 seconds
#
# Revision: 1
# Processed by: cddbd v1.5.1PL0 Copyright (c) Steve Scherf et al.
# Submitted via: ExactAudioCopy v0.95a5
#
DISCID=18114714
DTITLE=Tokyo's Coolest Combo - 20 COOLEST HITS
DYEAR=1992
DGENRE=Easy Listening
TTITLE0=More
TTITLE1=Me Japanese Boy
TTITLE2=The James Bond Theme
TTITLE3=Treize Jours en France
TTITLE4=Can We Still Be Friends
TTITLE5=Light My Fire
TTITLE6=Peppermint Rainbow
TTITLE7=Comment Te Dire Adieu (It Hurts To Say Goodbye)
TTITLE8=The Look Of Love
TTITLE9=Samidare
TTITLE10=Barbarella
TTITLE11=Umi No Soko De Utau Uta
TTITLE12=Chotto Matte Kudasai
TTITLE13=Friends Again
TTITLE14=The Apartment
TTITLE15=See You In September
TTITLE16=Stormy
TTITLE17=Wichita Lineman
TTITLE18=Circle Game
TTITLE19=Tokyo's Coolest Party
EXTD=
EXTT0=
EXTT1=
EXTT2=
EXTT3=
EXTT4=
EXTT5=
EXTT6=
EXTT7=
EXTT8=
EXTT9=
EXTT10=
EXTT11=
EXTT12=
EXTT13=
EXTT14=
EXTT15=
EXTT16=
EXTT17=
EXTT18=
EXTT19=
PLAYORDER=
